<svg xmlns="http://www.w3.org/2000/svg" xmlns:xlink="http://www.w3.org/1999/xlink" width="500" zoomAndPan="magnify" viewBox="0 0 375 374.999991" height="500" preserveAspectRatio="xMidYMid meet" version="1.0"><defs><clipPath id="a7899d4389"><path d="M 103 337 L 185 337 L 185 365.699219 L 103 365.699219 Z M 103 337 " clip-rule="nonzero"/></clipPath><clipPath id="31b51a8677"><path d="M 191 337 L 272 337 L 272 365.699219 L 191 365.699219 Z M 191 337 " clip-rule="nonzero"/></clipPath><clipPath id="2dd7425bff"><path d="M 79 8.699219 L 297 8.699219 L 297 100 L 79 100 Z M 79 8.699219 " clip-rule="nonzero"/></clipPath></defs><path fill="#f7bd5a" d="M 116.03125 329.996094 L 174.667969 329.996094 L 174.667969 294.980469 C 174.667969 261.824219 147.796875 234.933594 114.664062 234.933594 C 100.117188 234.933594 96.078125 228.09375 68.148438 200.875 C 63.4375 196.28125 58.785156 195.769531 53.132812 198.078125 C 48.707031 199.894531 50.785156 202.488281 76.941406 238.078125 C 74.78125 239.585938 71.800781 239.097656 70.230469 236.953125 L 45.113281 202.367188 C 43.339844 199.9375 44.09375 196.484375 46.726562 195.015625 C 52.867188 191.566406 51.601562 193.484375 49.910156 158.285156 C 49.132812 141.949219 34.996094 137.457031 34.730469 139.886719 C 29.652344 186.625 26.9375 195.75 31.996094 209.511719 C 35.464844 219.046875 43.320312 231.074219 48.316406 244.792969 C 55.621094 264.886719 68.636719 270.234375 96.914062 288.160156 C 108.808594 295.695312 116.03125 308.804688 116.03125 322.890625 L 116.03125 329.996094 " fill-opacity="1" fill-rule="nonzero"/><g clip-path="url(#a7899d4389)"><path fill="#f7bd5a" d="M 164.199219 347.496094 C 164.199219 339.347656 176.503906 339.347656 176.503906 347.496094 C 176.503906 355.640625 164.199219 355.640625 164.199219 347.496094 Z M 179.480469 337.816406 L 108.707031 337.816406 C 106.074219 337.816406 103.933594 339.960938 103.933594 342.59375 L 103.933594 361.195312 C 103.933594 363.828125 106.074219 365.972656 108.707031 365.972656 L 179.480469 365.972656 C 182.113281 365.972656 184.253906 363.828125 184.253906 361.195312 L 184.253906 342.59375 C 184.253906 339.960938 182.113281 337.816406 179.480469 337.816406 " fill-opacity="1" fill-rule="nonzero"/></g><path fill="#f7bd5a" d="M 340.636719 139.886719 C 340.371094 137.457031 326.230469 141.949219 325.457031 158.285156 C 323.761719 193.503906 322.5 191.566406 328.640625 195.015625 C 331.269531 196.484375 332.027344 199.9375 330.25 202.367188 L 305.136719 236.953125 C 303.566406 239.097656 300.585938 239.585938 298.425781 238.078125 C 314.625 216.027344 321.214844 206.550781 323.683594 202.40625 C 324.601562 200.875 324.027344 198.8125 322.234375 198.078125 C 316.582031 195.769531 311.929688 196.28125 307.21875 200.875 C 279.183594 228.175781 275.207031 234.933594 260.703125 234.933594 C 227.570312 234.933594 200.699219 261.824219 200.699219 294.980469 L 200.699219 329.996094 L 259.335938 329.996094 C 259.335938 323.789062 257.273438 301.597656 278.449219 288.160156 C 306.726562 270.234375 319.746094 264.863281 327.046875 244.792969 C 332.046875 231.074219 339.902344 219.046875 343.371094 209.511719 C 348.429688 195.75 345.714844 186.625 340.636719 139.886719 " fill-opacity="1" fill-rule="nonzero"/><g clip-path="url(#31b51a8677)"><path fill="#f7bd5a" d="M 198.863281 347.496094 C 198.863281 339.347656 211.164062 339.347656 211.164062 347.496094 C 211.164062 355.640625 198.863281 355.640625 198.863281 347.496094 Z M 266.660156 337.816406 L 195.882812 337.816406 C 193.253906 337.816406 191.109375 339.960938 191.109375 342.59375 L 191.109375 361.195312 C 191.109375 363.828125 193.253906 365.972656 195.882812 365.972656 L 266.660156 365.972656 C 269.289062 365.972656 271.433594 363.828125 271.433594 361.195312 L 271.433594 342.59375 C 271.433594 339.960938 269.289062 337.816406 266.660156 337.816406 " fill-opacity="1" fill-rule="nonzero"/></g><g clip-path="url(#2dd7425bff)"><path fill="#4f4a70" d="M 296.199219 97.746094 L 187.683594 8.949219 L 143.960938 44.722656 L 143.960938 37.105469 L 119.011719 37.105469 L 119.011719 65.136719 L 79.164062 97.746094 L 79.164062 99.339844 L 296.199219 99.339844 L 296.199219 97.746094 " fill-opacity="1" fill-rule="nonzero"/></g><path fill="#4f4a70" d="M 154.671875 139.988281 L 141.59375 139.988281 L 141.59375 126.882812 L 154.671875 126.882812 Z M 154.671875 158.53125 L 141.59375 158.53125 L 141.59375 145.421875 L 154.671875 145.421875 Z M 134.167969 139.988281 L 121.050781 139.988281 L 121.050781 126.882812 L 134.167969 126.882812 Z M 134.167969 158.53125 L 121.050781 158.53125 L 121.050781 145.421875 L 134.167969 145.421875 Z M 220.691406 145.421875 L 233.769531 145.421875 L 233.769531 158.53125 L 220.691406 158.53125 Z M 220.691406 126.882812 L 233.769531 126.882812 L 233.769531 139.988281 L 220.691406 139.988281 Z M 241.21875 145.421875 L 254.316406 145.421875 L 254.316406 158.53125 L 241.21875 158.53125 Z M 241.21875 126.882812 L 254.316406 126.882812 L 254.316406 139.988281 L 241.21875 139.988281 Z M 214.472656 212.453125 L 277.839844 212.453125 C 290.8125 212.453125 290.835938 192.789062 277.839844 192.789062 L 269.71875 192.789062 L 269.71875 111.589844 L 105.648438 111.589844 L 105.648438 192.789062 L 97.527344 192.789062 C 84.550781 192.789062 84.53125 212.453125 97.527344 212.453125 L 167.015625 212.453125 L 167.015625 162.019531 L 208.351562 162.019531 L 208.351562 212.453125 L 214.472656 212.453125 " fill-opacity="1" fill-rule="nonzero"/></svg>